<?xml version="1.0" standalone="no"?>
<!DOCTYPE svg PUBLIC "-//W3C//DTD SVG 20010904//EN"
 "http://www.w3.org/TR/2001/REC-SVG-20010904/DTD/svg10.dtd">
<svg version="1.0" xmlns="http://www.w3.org/2000/svg"
 width="243.000000pt" height="244.000000pt" viewBox="0 0 243.000000 244.000000"
 preserveAspectRatio="xMidYMid meet">

<g transform="translate(0.000000,244.000000) scale(0.100000,-0.100000)"
fill="#000000" stroke="none">
<path d="M1746 1996 c-40 -39 -34 -68 27 -134 66 -72 105 -128 149 -217 73
-146 102 -273 102 -445 -1 -248 -84 -463 -253 -653 -32 -36 -51 -67 -51 -83 0
-33 34 -64 69 -64 63 0 229 221 300 400 16 41 39 122 51 180 29 138 24 379 -9
504 -44 164 -142 346 -250 464 -67 74 -99 85 -135 48z"/>
<path d="M860 1795 l-205 -205 -208 0 c-124 0 -216 -4 -228 -10 -18 -10 -19
-25 -19 -368 0 -265 3 -361 12 -370 9 -9 72 -12 222 -12 l210 0 211 -210 c210
-208 237 -229 264 -196 8 10 10 225 9 792 l-3 779 -30 3 c-27 2 -50 -18 -235
-203z"/>
<path d="M1529 1782 c-37 -31 -29 -69 30 -142 101 -125 160 -283 161 -428 0
-145 -56 -307 -144 -416 -75 -91 -80 -102 -66 -136 14 -33 45 -46 85 -36 36 9
128 125 174 220 60 121 81 216 81 361 0 137 -18 228 -69 339 -55 122 -165 256
-210 256 -10 0 -29 -8 -42 -18z"/>
<path d="M1312 1564 c-33 -23 -29 -72 9 -120 18 -22 43 -64 58 -94 22 -47 26
-69 26 -145 0 -76 -4 -99 -26 -145 -14 -31 -40 -72 -58 -92 -46 -53 -42 -107
9 -126 35 -13 61 -1 104 50 87 102 129 253 107 389 -14 91 -65 199 -122 257
-44 45 -71 52 -107 26z"/>
</g>
</svg>
