<?xml version="1.0" standalone="no"?>
<!DOCTYPE svg PUBLIC "-//W3C//DTD SVG 20010904//EN"
 "http://www.w3.org/TR/2001/REC-SVG-20010904/DTD/svg10.dtd">
<svg version="1.0" xmlns="http://www.w3.org/2000/svg"
 width="262.000000pt" height="219.000000pt" viewBox="0 0 262.000000 219.000000"
 preserveAspectRatio="xMidYMid meet">

<g transform="translate(0.000000,219.000000) scale(0.100000,-0.100000)"
fill="#000000" stroke="none">
<path d="M950 1665 l-205 -205 -212 0 c-179 0 -214 -2 -227 -16 -14 -13 -16
-61 -16 -368 0 -276 3 -356 13 -364 8 -7 95 -12 227 -14 l215 -3 209 -208
c114 -114 216 -207 226 -207 10 0 23 6 29 14 8 10 10 225 9 792 l-3 779 -30 3
c-27 2 -50 -18 -235 -203z"/>
<path d="M1709 1546 c-83 -29 -141 -69 -208 -142 -137 -150 -166 -353 -77
-540 83 -174 255 -284 445 -284 92 0 159 17 241 61 328 174 348 649 36 851
-125 81 -301 102 -437 54z m304 -139 c32 -14 57 -28 57 -30 0 -2 -111 -115
-247 -250 -183 -183 -250 -243 -260 -236 -24 21 -48 113 -47 189 0 93 28 169
85 234 105 119 273 157 412 93z m195 -198 c31 -73 27 -210 -8 -282 -33 -70
-103 -142 -168 -174 -51 -25 -67 -28 -162 -28 -90 0 -111 3 -147 23 -24 12
-43 26 -43 30 0 13 485 492 495 489 5 -2 20 -28 33 -58z"/>
</g>
</svg>
